<mxfile host="65bd71144e">
    <diagram id="hhxDiTFprn5VBpqFmPml" name="Page-1">
        <mxGraphModel dx="1029" dy="1162" grid="1" gridSize="10" guides="1" tooltips="1" connect="1" arrows="1" fold="1" page="1" pageScale="1" pageWidth="850" pageHeight="1100" math="0" shadow="0">
            <root>
                <mxCell id="0"/>
                <mxCell id="1" parent="0"/>
                <mxCell id="17" style="edgeStyle=none;html=1;exitX=0.5;exitY=1;exitDx=0;exitDy=0;" edge="1" parent="1" source="2" target="4">
                    <mxGeometry relative="1" as="geometry"/>
                </mxCell>
                <mxCell id="2" value="Kids.js" style="rounded=0;whiteSpace=wrap;html=1;" parent="1" vertex="1">
                    <mxGeometry x="5" y="170" width="120" height="60" as="geometry"/>
                </mxCell>
                <mxCell id="16" style="edgeStyle=none;html=1;exitX=0.5;exitY=1;exitDx=0;exitDy=0;" edge="1" parent="1" source="3" target="4">
                    <mxGeometry relative="1" as="geometry"/>
                </mxCell>
                <mxCell id="3" value="CelebrityList.js" style="rounded=0;whiteSpace=wrap;html=1;" parent="1" vertex="1">
                    <mxGeometry x="245" y="170" width="120" height="60" as="geometry"/>
                </mxCell>
                <mxCell id="4" value="database.js" style="rounded=0;whiteSpace=wrap;html=1;" parent="1" vertex="1">
                    <mxGeometry x="245" y="280" width="120" height="60" as="geometry"/>
                </mxCell>
                <mxCell id="9" style="edgeStyle=none;html=1;exitX=0.5;exitY=1;exitDx=0;exitDy=0;" parent="1" source="5" target="3" edge="1">
                    <mxGeometry relative="1" as="geometry"/>
                </mxCell>
                <mxCell id="10" style="edgeStyle=none;html=1;exitX=0.5;exitY=1;exitDx=0;exitDy=0;" parent="1" source="5" target="6" edge="1">
                    <mxGeometry relative="1" as="geometry"/>
                </mxCell>
                <mxCell id="11" style="edgeStyle=none;html=1;exitX=0.5;exitY=1;exitDx=0;exitDy=0;" parent="1" source="5" target="2" edge="1">
                    <mxGeometry relative="1" as="geometry"/>
                </mxCell>
                <mxCell id="5" value="main.js" style="rounded=0;whiteSpace=wrap;html=1;" parent="1" vertex="1">
                    <mxGeometry x="245" y="50" width="120" height="60" as="geometry"/>
                </mxCell>
                <mxCell id="15" style="edgeStyle=none;html=1;exitX=0.5;exitY=1;exitDx=0;exitDy=0;" edge="1" parent="1" source="6" target="4">
                    <mxGeometry relative="1" as="geometry"/>
                </mxCell>
                <mxCell id="6" value="Pairings.js" style="rounded=0;whiteSpace=wrap;html=1;" parent="1" vertex="1">
                    <mxGeometry x="490" y="170" width="120" height="60" as="geometry"/>
                </mxCell>
            </root>
        </mxGraphModel>
    </diagram>
</mxfile>